<?xml version="1.0" encoding="UTF-8" standalone="no"?>
<!DOCTYPE svg PUBLIC "-//W3C//DTD SVG 1.1//EN" "http://www.w3.org/Graphics/SVG/1.1/DTD/svg11.dtd">
<svg width="100%" height="100%" viewBox="0 0 500 500" version="1.1" xmlns="http://www.w3.org/2000/svg" xmlns:xlink="http://www.w3.org/1999/xlink" xml:space="preserve" xmlns:serif="http://www.serif.com/" style="fill-rule:evenodd;clip-rule:evenodd;stroke-linecap:round;stroke-linejoin:round;stroke-miterlimit:1.5;">
    <g transform="matrix(1.08134,0,-3.0367e-20,1.05475,-15.4673,-15.2525)">
        <rect x="14.304" y="14.461" width="462.391" height="474.044" style="fill:rgb(184,165,66);"/>
    </g>
    <g transform="matrix(1.4,0,0,1.4,-196.9,40.3)">
        <circle cx="233.5" cy="235.5" r="2.5"/>
    </g>
    <g transform="matrix(1.4,0,0,1.4,43.1,40.3)">
        <circle cx="233.5" cy="235.5" r="2.5"/>
    </g>
    <g transform="matrix(1,-1.2031e-18,-1.19585e-18,1.01575,2.83834e-14,2.15607)">
        <path d="M250,37.257L250,450.747" style="fill:none;stroke:black;stroke-width:0.99px;"/>
    </g>
    <g transform="matrix(1,-1.2031e-18,-1.19585e-18,1.01575,-30,2.15607)">
        <path d="M250,37.257L250,450.747" style="fill:none;stroke:black;stroke-width:0.99px;"/>
    </g>
    <g transform="matrix(1,-1.2031e-18,-1.19585e-18,1.01575,30,2.15607)">
        <path d="M250,37.257L250,450.747" style="fill:none;stroke:black;stroke-width:0.99px;"/>
    </g>
    <g transform="matrix(1,-1.2031e-18,-1.19585e-18,1.01575,60,2.15607)">
        <path d="M250,37.257L250,450.747" style="fill:none;stroke:black;stroke-width:0.99px;"/>
    </g>
    <g transform="matrix(1,-1.2031e-18,-1.19585e-18,1.01575,90,2.15607)">
        <path d="M250,37.257L250,450.747" style="fill:none;stroke:black;stroke-width:0.99px;"/>
    </g>
    <g transform="matrix(1,-1.2031e-18,-1.19585e-18,1.01575,-150,2.15607)">
        <path d="M250,37.257L250,450.747" style="fill:none;stroke:black;stroke-width:0.99px;"/>
    </g>
    <g transform="matrix(1,-1.2031e-18,-1.19585e-18,1.01575,-180,2.15607)">
        <path d="M250,37.257L250,450.747" style="fill:none;stroke:black;stroke-width:0.99px;"/>
    </g>
    <g transform="matrix(1,-1.2031e-18,-1.19585e-18,1.01575,-120,2.15607)">
        <path d="M250,37.257L250,450.747" style="fill:none;stroke:black;stroke-width:0.99px;"/>
    </g>
    <g transform="matrix(1,-1.2031e-18,-1.19585e-18,1.01575,-90,2.15607)">
        <path d="M250,37.257L250,450.747" style="fill:none;stroke:black;stroke-width:0.99px;"/>
    </g>
    <g transform="matrix(1,-1.2031e-18,-1.19585e-18,1.01575,-60,2.15607)">
        <path d="M250,37.257L250,450.747" style="fill:none;stroke:black;stroke-width:0.99px;"/>
    </g>
    <g transform="matrix(1,-1.2031e-18,-1.19585e-18,1.01575,120,2.15607)">
        <path d="M250,37.257L250,450.747" style="fill:none;stroke:black;stroke-width:0.99px;"/>
    </g>
    <g transform="matrix(1,-1.2031e-18,-1.19585e-18,1.01575,150,2.15607)">
        <path d="M250,37.257L250,450.747" style="fill:none;stroke:black;stroke-width:0.99px;"/>
    </g>
    <g transform="matrix(1,-1.2031e-18,-1.19585e-18,1.01575,180,2.15607)">
        <path d="M250,37.257L250,450.747" style="fill:none;stroke:black;stroke-width:0.99px;"/>
    </g>
    <g transform="matrix(1,-1.19768e-18,-1.19035e-18,1.01575,210,2.15607)">
        <path d="M250,37.257L250,450.747" style="fill:none;stroke:black;stroke-width:0.99px;"/>
    </g>
    <g transform="matrix(1,0,0,1.00008,0,0.0224298)">
        <path d="M40,39.974L40,459.941" style="fill:none;stroke:black;stroke-width:1px;"/>
    </g>
    <g transform="matrix(1.41998,0,0,1,-126.285,0)">
        <path d="M117.104,250L412.883,250" style="fill:none;stroke:black;stroke-width:0.81px;"/>
    </g>
    <g transform="matrix(1.41998,0,0,1,-126.285,30)">
        <path d="M117.104,250L412.883,250" style="fill:none;stroke:black;stroke-width:0.81px;"/>
    </g>
    <g transform="matrix(1.41998,0,0,1,-126.285,60)">
        <path d="M117.104,250L412.883,250" style="fill:none;stroke:black;stroke-width:0.81px;"/>
    </g>
    <g transform="matrix(1.41998,0,0,1,-126.285,120)">
        <path d="M117.104,250L412.883,250" style="fill:none;stroke:black;stroke-width:0.81px;"/>
    </g>
    <g transform="matrix(1.41998,0,0,1,-126.285,150)">
        <path d="M117.104,250L412.883,250" style="fill:none;stroke:black;stroke-width:0.81px;"/>
    </g>
    <g transform="matrix(1.41998,0,0,1,-126.285,180)">
        <path d="M117.104,250L412.883,250" style="fill:none;stroke:black;stroke-width:0.81px;"/>
    </g>
    <g transform="matrix(1.41998,0,0,1,-126.285,90)">
        <path d="M117.104,250L412.883,250" style="fill:none;stroke:black;stroke-width:0.81px;"/>
    </g>
    <g transform="matrix(1.41998,0,0,1,-126.285,-180)">
        <path d="M117.104,250L412.883,250" style="fill:none;stroke:black;stroke-width:0.81px;"/>
    </g>
    <g transform="matrix(1.41998,0,0,1,-126.285,-150)">
        <path d="M117.104,250L412.883,250" style="fill:none;stroke:black;stroke-width:0.81px;"/>
    </g>
    <g transform="matrix(1.41998,0,0,1,-126.285,-90)">
        <path d="M117.104,250L412.883,250" style="fill:none;stroke:black;stroke-width:0.81px;"/>
    </g>
    <g transform="matrix(1.41998,0,0,1,-126.285,-60)">
        <path d="M117.104,250L412.883,250" style="fill:none;stroke:black;stroke-width:0.81px;"/>
    </g>
    <g transform="matrix(1.41998,0,0,1,-126.285,-30)">
        <path d="M117.104,250L412.883,250" style="fill:none;stroke:black;stroke-width:0.81px;"/>
    </g>
    <g transform="matrix(1.41998,0,0,1,-126.285,-120)">
        <path d="M117.104,250L412.883,250" style="fill:none;stroke:black;stroke-width:0.81px;"/>
    </g>
    <g transform="matrix(1.41998,0,0,1,-126.285,210)">
        <path d="M117.104,250L412.883,250" style="fill:none;stroke:black;stroke-width:0.81px;"/>
    </g>
    <g transform="matrix(1.41998,0,0,1,-126.285,-210)">
        <path d="M117.104,250L412.883,250" style="fill:none;stroke:black;stroke-width:0.81px;"/>
    </g>
    <g transform="matrix(1.4,0,0,1.4,-76.9,-79.7)">
        <circle cx="233.5" cy="235.5" r="2.5"/>
    </g>
    <g transform="matrix(1.4,0,0,1.4,-196.9,-199.7)">
        <circle cx="233.5" cy="235.5" r="2.5"/>
    </g>
    <g transform="matrix(1.4,0,0,1.4,43.1,-199.7)">
        <circle cx="233.5" cy="235.5" r="2.5"/>
    </g>
</svg>
